<svg xmlns="http://www.w3.org/2000/svg" version="1.1" xmlns:xlink="http://www.w3.org/1999/xlink" xmlns:svgjs="http://svgjs.dev/svgjs" viewBox="0 0 800 800" opacity="1"><defs><linearGradient x1="50%" y1="0%" x2="50%" y2="100%" id="vvvortex-grad"><stop stop-color="hsl(46, 100%, 67%)" stop-opacity="1" offset="0%"></stop><stop stop-color="hsl(273, 100%, 50%)" stop-opacity="1" offset="100%"></stop></linearGradient></defs><g stroke="url(#vvvortex-grad)" fill="none" stroke-linecap="round"><circle r="352" cx="400" cy="400" stroke-width="5" stroke-dasharray="22 31" stroke-dashoffset="25" transform="rotate(179, 400, 400)" opacity="1.00"></circle><circle r="336" cx="400" cy="400" stroke-width="5" stroke-dasharray="43 27" stroke-dashoffset="25" transform="rotate(46, 400, 400)" opacity="0.95"></circle><circle r="320" cx="400" cy="400" stroke-width="5" stroke-dasharray="33 16" stroke-dashoffset="25" transform="rotate(302, 400, 400)" opacity="0.91"></circle><circle r="304" cx="400" cy="400" stroke-width="4" stroke-dasharray="36 20" stroke-dashoffset="25" transform="rotate(70, 400, 400)" opacity="0.86"></circle><circle r="288" cx="400" cy="400" stroke-width="4" stroke-dasharray="14 52" stroke-dashoffset="25" transform="rotate(241, 400, 400)" opacity="0.82"></circle><circle r="272" cx="400" cy="400" stroke-width="4" stroke-dasharray="36 33" stroke-dashoffset="25" transform="rotate(340, 400, 400)" opacity="0.77"></circle><circle r="256" cx="400" cy="400" stroke-width="4" stroke-dasharray="51 10" stroke-dashoffset="25" transform="rotate(234, 400, 400)" opacity="0.73"></circle><circle r="240" cx="400" cy="400" stroke-width="4" stroke-dasharray="18 35" stroke-dashoffset="25" transform="rotate(345, 400, 400)" opacity="0.68"></circle><circle r="224" cx="400" cy="400" stroke-width="3" stroke-dasharray="53 39" stroke-dashoffset="25" transform="rotate(302, 400, 400)" opacity="0.64"></circle><circle r="208" cx="400" cy="400" stroke-width="3" stroke-dasharray="14 40" stroke-dashoffset="25" transform="rotate(357, 400, 400)" opacity="0.59"></circle><circle r="192" cx="400" cy="400" stroke-width="3" stroke-dasharray="48 23" stroke-dashoffset="25" transform="rotate(310, 400, 400)" opacity="0.55"></circle><circle r="176" cx="400" cy="400" stroke-width="3" stroke-dasharray="49 14" stroke-dashoffset="25" transform="rotate(2, 400, 400)" opacity="0.50"></circle><circle r="160" cx="400" cy="400" stroke-width="3" stroke-dasharray="34 14" stroke-dashoffset="25" transform="rotate(42, 400, 400)" opacity="0.46"></circle><circle r="144" cx="400" cy="400" stroke-width="3" stroke-dasharray="49 54" stroke-dashoffset="25" transform="rotate(239, 400, 400)" opacity="0.41"></circle><circle r="128" cx="400" cy="400" stroke-width="2" stroke-dasharray="12 33" stroke-dashoffset="25" transform="rotate(88, 400, 400)" opacity="0.37"></circle><circle r="112" cx="400" cy="400" stroke-width="2" stroke-dasharray="26 31" stroke-dashoffset="25" transform="rotate(18, 400, 400)" opacity="0.32"></circle><circle r="96" cx="400" cy="400" stroke-width="2" stroke-dasharray="14 31" stroke-dashoffset="25" transform="rotate(170, 400, 400)" opacity="0.28"></circle><circle r="80" cx="400" cy="400" stroke-width="2" stroke-dasharray="41 16" stroke-dashoffset="25" transform="rotate(334, 400, 400)" opacity="0.23"></circle><circle r="64" cx="400" cy="400" stroke-width="2" stroke-dasharray="23 38" stroke-dashoffset="25" transform="rotate(208, 400, 400)" opacity="0.19"></circle><circle r="48" cx="400" cy="400" stroke-width="1" stroke-dasharray="54 11" stroke-dashoffset="25" transform="rotate(267, 400, 400)" opacity="0.14"></circle><circle r="32" cx="400" cy="400" stroke-width="1" stroke-dasharray="23 52" stroke-dashoffset="25" transform="rotate(29, 400, 400)" opacity="0.10"></circle><circle r="16" cx="400" cy="400" stroke-width="1" stroke-dasharray="49 12" stroke-dashoffset="25" transform="rotate(227, 400, 400)" opacity="0.05"></circle></g></svg>
