<svg xmlns="http://www.w3.org/2000/svg" version="1.1" xmlns:xlink="http://www.w3.org/1999/xlink" xmlns:svgjs="http://svgjs.dev/svgjs" viewBox="0 0 1422 800"><defs><linearGradient x1="50%" y1="0%" x2="50%" y2="100%" id="ccchaos-grad"><stop stop-color="hsl(37, 99%, 67%)" stop-opacity="1" offset="0%"></stop><stop stop-color="hsl(316, 73%, 52%)" stop-opacity="1" offset="100%"></stop></linearGradient></defs><g stroke-width="2.5" stroke="url(#ccchaos-grad)" fill="none" stroke-linecap="round"><path d="M711.69 128.74C721.18 130.31 730.57 132.09 739.83 134.02 749.1 135.61 758.24 137.28 767.22 139.03 776.2 140.42 785.03 141.94 793.68 143.6 802.32 145.04 810.78 146.73 819.03 148.73 827.26 150.67 835.27 153.03 843.05 155.84 850.8 158.74 858.31 162.18 865.54 166.15 872.75 170.29 879.68 174.99 886.32 180.22 892.95 185.63 899.28 191.56 905.31 197.94 911.34 204.48 917.08 211.43 922.51 218.74 927.98 226.15 933.16 233.87 938.04 241.86 942.97 249.89 947.62 258.15 951.95 266.61 956.33 275.06 960.4 283.69 964.12 292.46 967.85 301.21 971.2 310.1 974.13 319.09 977.02 328.07 979.45 337.15 981.38 346.32 983.24 355.48 984.58 364.73 985.39 374.06 986.12 383.37 986.35 392.77 986.06 402.22 985.77 411.67 985.01 420.95 983.85 430.05 982.74 439.16 981.26 448.08 979.41 456.81 977.65 465.54 975.51 474.07 973.02 482.39 970.58 490.72 967.74 498.83 964.52 506.72 961.29 514.62 957.64 522.3 953.58 529.74 949.47 537.21 944.95 544.46 940.03 551.46 935.05 558.51 929.69 565.34 923.97 571.93 918.21 578.57 912.12 584.99 905.72 591.17 899.3 597.42 892.6 603.44 885.64 609.21 878.68 615.04 871.48 620.62 864.05 625.91 856.63 631.25 848.99 636.3 841.14 641.01 833.31 645.73 825.27 650.09 817.03 654.06 808.81 657.98 800.4 661.48 791.81 664.51 783.23 667.46 774.46 669.92 765.54 671.85 756.61 673.68 747.53 674.98 738.3 675.72 729.08 676.37 719.71 676.48 710.21 676.04 700.72 675.56 691.33 674.57 682.07 673.12 672.81 671.69 663.67 669.85 654.69 667.62 645.72 665.47 636.9 662.95 628.26 660.12 619.63 657.38 611.18 654.32 602.95 650.95 594.73 647.68 586.73 644.09 578.98 640.2 571.24 636.37 563.75 632.22 556.54 627.74 549.34 623.29 542.42 618.49 535.79 613.36 529.17 608.22 522.84 602.72 516.81 596.88 510.77 591.01 505.02 584.79 499.56 578.25 494.08 571.65 488.87 564.73 483.96 557.52 479 550.25 474.32 542.69 469.96 534.88 465.55 527.02 461.47 518.91 457.74 510.59 454.01 502.24 450.66 493.68 447.75 484.94 444.88 476.19 442.48 467.27 440.59 458.21 438.77 449.15 437.46 439.96 436.69 430.67 435.98 421.38 435.77 412 436.06 402.56 436.35 393.11 437.09 383.84 438.23 374.75 439.3 365.67 440.75 356.77 442.56 348.09 444.29 339.4 446.39 330.92 448.85 322.67 451.28 314.4 454.11 306.34 457.34 298.5 460.58 290.64 464.25 282.97 468.33 275.51 472.47 267.99 477.02 260.64 481.97 253.47 486.98 246.2 492.37 239.08 498.11 232.11 503.88 225.01 509.99 218.04 516.4 211.2 522.81 204.23 529.52 197.4 536.47 190.74 543.42 183.99 550.61 177.45 558.03 171.17 565.43 164.9 573.05 158.96 580.89 153.45 588.7 148.07 596.73 143.21 604.94 138.95 613.15 134.95 621.55 131.62 630.13 129.02 638.7 126.74 647.46 125.2 656.38 124.41 665.3 123.89 674.38 124.03 683.6 124.81 692.83 125.67 702.19 127 711.69 128.74" stroke-dasharray="47 44" transform="rotate(0, 711, 400)" opacity="0.51"></path><path d="M711.89 139.69C721 141.18 730.01 142.89 738.9 144.75 747.79 146.31 756.55 147.98 765.16 149.73 773.76 151.17 782.22 152.72 790.5 154.42 798.77 155.9 806.85 157.61 814.74 159.6 822.61 161.51 830.27 163.79 837.69 166.48 845.1 169.23 852.27 172.46 859.18 176.17 866.08 180.02 872.72 184.38 879.07 189.24 885.42 194.26 891.5 199.76 897.3 205.71 903.1 211.8 908.64 218.3 913.89 225.17 919.17 232.13 924.18 239.41 928.91 246.97 933.68 254.58 938.18 262.44 942.37 270.5 946.61 278.57 950.53 286.83 954.11 295.24 957.7 303.64 960.91 312.18 963.71 320.83 966.47 329.47 968.78 338.23 970.62 347.06 972.38 355.89 973.66 364.8 974.42 373.79 975.12 382.76 975.34 391.81 975.06 400.9 974.78 410 974.05 418.93 972.93 427.69 971.86 436.45 970.42 445.03 968.63 453.42 966.92 461.82 964.85 470.02 962.44 478.02 960.08 486.04 957.35 493.85 954.25 501.45 951.16 509.07 947.67 516.48 943.79 523.67 939.88 530.89 935.58 537.91 930.89 544.69 926.16 551.53 921.05 558.15 915.6 564.55 910.11 571.01 904.29 577.25 898.16 583.27 892.02 589.35 885.59 595.2 878.91 600.81 872.22 606.48 865.28 611.89 858.13 617.03 850.98 622.21 843.61 627.09 836.05 631.64 828.49 636.2 820.74 640.4 812.8 644.21 804.88 647.98 796.77 651.33 788.5 654.22 780.23 657.04 771.8 659.38 763.21 661.21 754.63 662.95 745.9 664.17 737.03 664.86 728.16 665.46 719.16 665.54 710.05 665.1 700.94 664.61 691.93 663.63 683.04 662.22 674.16 660.82 665.4 659.02 656.8 656.85 648.2 654.74 639.75 652.3 631.49 649.54 623.23 646.87 615.15 643.89 607.28 640.62 599.42 637.44 591.78 633.96 584.37 630.2 576.97 626.5 569.81 622.5 562.92 618.19 556.03 613.92 549.4 609.33 543.05 604.42 536.7 599.52 530.61 594.28 524.81 588.73 518.99 583.15 513.44 577.25 508.17 571.03 502.86 564.78 497.82 558.22 493.07 551.37 488.26 544.48 483.74 537.31 479.52 529.89 475.26 522.43 471.33 514.73 467.74 506.81 464.16 498.87 460.96 490.72 458.18 482.39 455.44 474.05 453.16 465.54 451.36 456.9 449.63 448.25 448.39 439.47 447.66 430.59 446.98 421.7 446.78 412.72 447.06 403.68 447.34 394.64 448.05 385.74 449.15 377.02 450.19 368.3 451.59 359.75 453.35 351.39 455.03 343.03 457.06 334.85 459.45 326.87 461.79 318.88 464.51 311.07 467.6 303.45 470.71 295.8 474.21 288.32 478.1 281.03 482.03 273.67 486.37 266.47 491.08 259.42 495.84 252.29 500.98 245.29 506.45 238.43 511.96 231.46 517.81 224.62 523.94 217.92 530.09 211.12 536.53 204.47 543.21 198.01 549.9 191.49 556.82 185.2 563.97 179.2 571.11 173.23 578.46 167.62 586.02 162.43 593.55 157.39 601.29 152.86 609.21 148.91 617.12 145.2 625.22 142.14 633.48 139.76 641.74 137.67 650.17 136.28 658.74 135.58 667.32 135.1 676.05 135.25 684.91 135.99 693.78 136.79 702.78 138.04 711.89 139.69" stroke-dasharray="48 46" transform="rotate(15, 711, 400)" opacity="0.51"></path><path d="M711.99 150.63C720.72 152.04 729.35 153.68 737.86 155.48 746.36 157.01 754.75 158.66 762.98 160.41 771.21 161.88 779.29 163.46 787.2 165.19 795.1 166.71 802.82 168.44 810.35 170.42 817.86 172.31 825.17 174.54 832.26 177.12 839.33 179.74 846.18 182.78 852.78 186.26 859.37 189.85 865.72 193.91 871.81 198.43 877.9 203.08 883.73 208.19 889.3 213.72 894.89 219.38 900.23 225.44 905.29 231.86 910.39 238.37 915.24 245.21 919.81 252.33 924.42 259.51 928.77 266.95 932.82 274.59 936.9 282.26 940.67 290.13 944.11 298.15 947.54 306.17 950.61 314.35 953.28 322.63 955.91 330.92 958.11 339.32 959.85 347.8 961.53 356.28 962.73 364.84 963.46 373.47 964.12 382.1 964.33 390.79 964.06 399.53 963.79 408.28 963.09 416.86 962.01 425.27 960.98 433.69 959.58 441.94 957.86 450 956.19 458.07 954.19 465.97 951.86 473.67 949.58 481.38 946.95 488.91 943.98 496.23 941.02 503.58 937.68 510.73 933.99 517.68 930.27 524.66 926.17 531.45 921.72 538.03 917.23 544.65 912.37 551.07 907.19 557.29 901.97 563.56 896.42 569.62 890.58 575.47 884.72 581.37 878.57 587.05 872.17 592.5 865.76 597.99 859.11 603.24 852.24 608.21 845.37 613.21 838.29 617.92 831.02 622.31 823.75 626.68 816.3 630.72 808.67 634.37 801.04 637.97 793.25 641.17 785.29 643.93 777.35 646.61 769.24 648.83 761 650.56 752.75 652.2 744.37 653.35 735.86 653.99 727.36 654.54 718.73 654.6 710 654.15 701.26 653.66 692.63 652.7 684.13 651.32 675.63 649.96 667.25 648.2 659.02 646.09 650.8 644.04 642.72 641.66 634.83 638.97 626.94 636.37 619.22 633.47 611.71 630.3 604.21 627.21 596.91 623.84 589.83 620.2 582.77 616.63 575.93 612.77 569.33 608.63 562.75 604.53 556.4 600.13 550.31 595.43 544.21 590.75 538.37 585.76 532.78 580.48 527.18 575.18 521.83 569.58 516.74 563.68 511.61 557.76 506.74 551.54 502.14 545.05 497.5 538.53 493.13 531.74 489.06 524.71 484.97 517.64 481.18 510.34 477.75 502.82 474.32 495.28 471.26 487.55 468.61 479.63 466.01 471.7 463.84 463.61 462.14 455.37 460.49 447.13 459.32 438.76 458.63 430.28 457.98 421.8 457.79 413.23 458.06 404.58 458.33 395.92 459.01 387.41 460.07 379.04 461.07 370.68 462.44 362.47 464.13 354.42 465.76 346.37 467.73 338.48 470.03 330.77 472.29 323.04 474.91 315.47 477.87 308.06 480.84 300.63 484.18 293.34 487.89 286.22 491.63 279.03 495.75 271.99 500.23 265.08 504.75 258.1 509.63 251.25 514.84 244.53 520.09 237.72 525.65 231.04 531.51 224.52 537.39 217.92 543.54 211.49 549.95 205.27 556.36 199.01 563.01 193.01 569.87 187.3 576.73 181.65 583.81 176.37 591.07 171.51 598.32 166.8 605.77 162.59 613.39 158.94 621 155.53 628.79 152.71 636.73 150.55 644.67 148.64 652.77 147.37 661.01 146.75 669.24 146.32 677.62 146.47 686.12 147.17 694.63 147.91 703.25 149.08 711.99 150.63" stroke-dasharray="62 67" transform="rotate(30, 711, 400)" opacity="0.41"></path><path d="M711.97 161.58C720.32 162.91 728.57 164.47 736.7 166.21 744.83 167.71 752.84 169.33 760.69 171.08 768.55 172.55 776.26 174.17 783.8 175.92 791.34 177.46 798.7 179.21 805.87 181.19 813.04 183.06 820.01 185.24 826.76 187.74 833.51 190.24 840.05 193.13 846.35 196.41 852.65 199.76 858.73 203.55 864.56 207.75 870.39 212.07 876 216.81 881.35 221.95 886.73 227.2 891.86 232.84 896.75 238.82 901.67 244.9 906.34 251.29 910.75 257.97 915.2 264.71 919.38 271.71 923.28 278.93 927.2 286.18 930.82 293.63 934.11 301.25 937.39 308.88 940.31 316.66 942.85 324.57 945.35 332.48 947.43 340.5 949.08 348.62 950.66 356.73 951.81 364.93 952.49 373.2 953.12 381.47 953.32 389.81 953.06 398.19 952.8 406.58 952.13 414.81 951.1 422.89 950.1 430.97 948.75 438.89 947.08 446.63 945.48 454.39 943.54 461.98 941.3 469.38 939.1 476.81 936.57 484.05 933.72 491.11 930.88 498.2 927.69 505.1 924.17 511.82 920.63 518.56 916.74 525.12 912.52 531.49 908.26 537.91 903.65 544.13 898.73 550.16 893.78 556.23 888.51 562.11 882.96 567.78 877.38 573.5 871.52 579 865.42 584.27 859.3 589.58 852.95 594.65 846.38 599.45 839.8 604.26 833.02 608.79 826.05 613 819.08 617.19 811.93 621.05 804.61 624.54 797.3 627.98 789.82 631.02 782.19 633.64 774.57 636.18 766.8 638.28 758.89 639.91 750.99 641.45 742.96 642.53 734.82 643.11 726.67 643.62 718.41 643.66 710.06 643.21 701.7 642.71 693.45 641.78 685.33 640.44 677.2 639.1 669.2 637.39 661.35 635.35 653.5 633.35 645.8 631.04 638.26 628.43 630.73 625.9 623.38 623.08 616.21 620.01 609.06 617.01 602.09 613.74 595.34 610.22 588.6 606.77 582.07 603.05 575.77 599.06 569.46 595.12 563.39 590.9 557.55 586.41 551.7 581.95 546.09 577.19 540.72 572.16 535.32 567.13 530.16 561.8 525.25 556.21 520.31 550.6 515.61 544.72 511.18 538.58 506.7 532.41 502.5 525.98 498.59 519.32 494.66 512.64 491.03 505.73 487.75 498.61 484.48 491.47 481.57 484.14 479.06 476.63 476.59 469.11 474.53 461.42 472.92 453.59 471.36 445.76 470.25 437.79 469.59 429.71 468.98 421.63 468.8 413.45 469.06 405.19 469.32 396.92 469.97 388.77 470.99 380.76 471.96 372.74 473.27 364.86 474.91 357.12 476.49 349.37 478.39 341.77 480.61 334.31 482.79 326.84 485.3 319.51 488.14 312.32 490.98 305.11 494.17 298.02 497.7 291.08 501.25 284.08 505.16 277.21 509.41 270.47 513.7 263.67 518.32 256.99 523.27 250.44 528.25 243.83 533.54 237.35 539.11 231.04 544.7 224.68 550.57 218.5 556.69 212.54 562.81 206.58 569.17 200.88 575.74 195.48 582.31 190.16 589.09 185.21 596.06 180.69 603.02 176.31 610.17 172.42 617.48 169.06 624.78 165.92 632.25 163.34 639.87 161.37 647.49 159.63 655.25 158.47 663.15 157.92 671.05 157.53 679.07 157.68 687.22 158.33 695.36 159.02 703.62 160.12 711.97 161.58" stroke-dasharray="31 55" transform="rotate(45, 711, 400)" opacity="0.22"></path><path d="M711.84 172.53C719.81 173.78 727.68 175.27 735.43 176.94 743.18 178.39 750.81 179.99 758.3 181.72 765.79 183.2 773.13 184.83 780.31 186.59 787.49 188.17 794.5 189.93 801.33 191.9 808.15 193.77 814.79 195.9 821.23 198.33 827.67 200.73 833.9 203.48 839.92 206.59 845.94 209.74 851.75 213.28 857.33 217.2 862.92 221.21 868.3 225.61 873.44 230.39 878.6 235.26 883.54 240.49 888.24 246.06 892.98 251.7 897.48 257.67 901.72 263.91 906 270.21 910.02 276.78 913.76 283.56 917.51 290.38 920.97 297.41 924.1 304.61 927.23 311.83 930.01 319.21 932.41 326.72 934.77 334.23 936.75 341.87 938.3 349.6 939.8 357.34 940.88 365.17 941.52 373.07 942.12 380.97 942.31 388.94 942.06 396.96 941.81 404.98 941.18 412.87 940.18 420.61 939.22 428.35 937.93 435.94 936.32 443.38 934.76 450.82 932.9 458.11 930.74 465.23 928.62 472.36 926.19 479.34 923.45 486.14 920.74 492.96 917.7 499.62 914.34 506.1 910.98 512.61 907.29 518.95 903.28 525.11 899.24 531.31 894.89 537.33 890.23 543.17 885.54 549.04 880.55 554.72 875.28 560.21 869.99 565.73 864.43 571.04 858.63 576.13 852.82 581.24 846.76 586.12 840.5 590.73 834.23 595.35 827.76 599.68 821.1 603.71 814.44 607.72 807.61 611.4 800.61 614.71 793.62 617.98 786.46 620.86 779.17 623.34 771.87 625.74 764.44 627.72 756.89 629.25 749.33 630.7 741.65 631.7 733.87 632.24 726.09 632.7 718.2 632.71 710.23 632.26 702.26 631.77 694.39 630.85 686.64 629.55 678.89 628.26 671.26 626.6 663.78 624.62 656.3 622.68 648.96 620.43 641.78 617.91 634.61 615.45 627.6 612.72 620.78 609.74 613.96 606.83 607.32 603.67 600.89 600.26 594.45 596.93 588.22 593.33 582.2 589.5 576.17 585.71 570.35 581.67 564.76 577.37 559.15 573.1 553.76 568.56 548.6 563.77 543.41 558.99 538.45 553.94 533.73 548.63 528.97 543.32 524.45 537.75 520.18 531.94 515.89 526.11 511.85 520.03 508.11 513.74 504.35 507.43 500.89 500.89 497.76 494.16 494.65 487.41 491.89 480.47 489.51 473.36 487.17 466.24 485.23 458.95 483.7 451.52 482.24 444.09 481.18 436.52 480.57 428.84 479.98 421.15 479.81 413.36 480.06 405.47 480.31 397.59 480.93 389.8 481.91 382.13 482.84 374.46 484.11 366.9 485.69 359.46 487.21 352.02 489.04 344.7 491.18 337.5 493.28 330.3 495.69 323.21 498.41 316.25 501.12 309.26 504.16 302.39 507.52 295.64 510.89 288.85 514.6 282.18 518.63 275.63 522.68 269.04 527.06 262.56 531.74 256.22 536.46 249.84 541.47 243.6 546.76 237.53 552.06 231.43 557.64 225.53 563.45 219.86 569.28 214.21 575.34 208.83 581.61 203.77 587.88 198.79 594.36 194.17 601.02 189.97 607.67 185.92 614.51 182.33 621.5 179.26 628.49 176.37 635.64 174.02 642.93 172.23 650.22 170.64 657.64 169.59 665.19 169.1 672.74 168.74 680.42 168.88 688.2 169.5 695.98 170.13 703.86 171.15 711.84 172.53" stroke-dasharray="30 61" transform="rotate(60, 711, 400)" opacity="0.07"></path><path d="M711.61 183.47C719.2 184.65 726.69 186.06 734.07 187.66 741.45 189.07 748.71 190.64 755.83 192.34 762.95 193.82 769.93 195.45 776.76 197.22 783.58 198.81 790.25 200.58 796.75 202.55 803.24 204.4 809.56 206.5 815.69 208.86 821.82 211.19 827.76 213.82 833.5 216.77 839.25 219.74 844.8 223.07 850.14 226.74 855.5 230.47 860.65 234.56 865.58 239 870.54 243.51 875.28 248.37 879.79 253.54 884.34 258.78 888.65 264.33 892.73 270.14 896.82 276.02 900.67 282.15 904.24 288.5 907.82 294.89 911.11 301.49 914.09 308.27 917.06 315.07 919.69 322.03 921.96 329.13 924.19 336.24 926.05 343.48 927.52 350.83 928.93 358.17 929.95 365.62 930.55 373.14 931.12 380.66 931.29 388.26 931.06 395.92 930.83 403.58 930.22 411.11 929.26 418.51 928.35 425.91 927.1 433.18 925.56 440.31 924.06 447.44 922.27 454.43 920.19 461.26 918.15 468.11 915.82 474.81 913.2 481.36 910.6 487.92 907.7 494.33 904.51 500.57 901.32 506.85 897.81 512.96 894.02 518.91 890.2 524.88 886.08 530.69 881.68 536.32 877.25 541.98 872.53 547.47 867.55 552.75 862.55 558.06 857.29 563.18 851.8 568.07 846.29 572.97 840.55 577.64 834.6 582.06 828.65 586.47 822.49 590.61 816.16 594.45 809.82 598.25 803.31 601.74 796.64 604.89 789.98 607.97 783.16 610.7 776.2 613.03 769.25 615.29 762.16 617.15 754.96 618.58 747.75 619.93 740.43 620.86 733.02 621.35 725.6 621.77 718.09 621.76 710.49 621.31 702.9 620.83 695.41 619.94 688.03 618.68 680.65 617.42 673.4 615.82 666.28 613.9 659.16 612.02 652.18 609.85 645.36 607.41 638.53 605.02 631.87 602.38 625.37 599.5 618.88 596.68 612.56 593.62 606.43 590.33 600.29 587.11 594.34 583.65 588.59 579.96 582.83 576.32 577.27 572.43 571.92 568.32 566.55 564.24 561.38 559.91 556.43 555.34 551.45 550.79 546.69 546 542.15 540.96 537.59 535.93 533.25 530.66 529.16 525.16 525.05 519.65 521.19 513.92 517.62 507.97 514.03 502.01 510.75 495.84 507.78 489.48 504.83 483.11 502.22 476.55 499.97 469.82 497.76 463.09 495.93 456.2 494.5 449.16 493.11 442.12 492.12 434.94 491.54 427.64 490.99 420.34 490.82 412.93 491.06 405.42 491.29 397.91 491.89 390.48 492.83 383.15 493.72 375.82 494.94 368.58 496.46 361.44 497.92 354.3 499.69 347.27 501.74 340.34 503.76 333.4 506.07 326.57 508.67 319.85 511.26 313.1 514.15 306.46 517.35 299.94 520.55 293.38 524.06 286.93 527.87 280.61 531.7 274.24 535.84 268 540.27 261.91 544.72 255.78 549.45 249.81 554.45 244.01 559.47 238.21 564.75 232.62 570.26 227.26 575.79 221.94 581.54 216.89 587.49 212.16 593.46 207.52 599.62 203.24 605.96 199.37 612.3 195.63 618.81 192.34 625.48 189.52 632.14 186.89 638.96 184.74 645.91 183.12 652.86 181.67 659.95 180.72 667.15 180.28 674.35 179.95 681.67 180.08 689.08 180.65 696.5 181.24 704.01 182.19 711.61 183.47" stroke-dasharray="27 67" transform="rotate(75, 711, 400)" opacity="0.73"></path><path d="M711.3 194.42C718.52 195.52 725.64 196.86 732.64 198.39 739.64 199.75 746.53 201.28 753.29 202.94 760.05 204.42 766.68 206.04 773.16 207.8 779.64 209.4 785.98 211.18 792.15 213.13 798.32 214.98 804.33 217.04 810.16 219.34 815.99 221.6 821.65 224.13 827.13 226.94 832.61 229.76 837.91 232.89 843.01 236.34 848.13 239.82 853.06 243.64 857.78 247.77 862.52 251.95 867.06 256.46 871.39 261.26 875.73 266.12 879.86 271.26 883.75 276.67 887.66 282.13 891.33 287.84 894.73 293.77 898.13 299.74 901.26 305.91 904.08 312.26 906.88 318.64 909.36 325.18 911.5 331.87 913.61 338.57 915.36 345.4 916.73 352.35 918.06 359.29 919.02 366.35 919.59 373.48 920.12 380.62 920.28 387.84 920.06 395.13 919.84 402.41 919.26 409.59 918.35 416.65 917.47 423.71 916.28 430.65 914.8 437.46 913.36 444.28 911.64 450.97 909.64 457.52 907.69 464.08 905.46 470.5 902.95 476.79 900.47 483.08 897.71 489.24 894.67 495.25 891.64 501.27 888.32 507.15 884.73 512.87 881.12 518.62 877.23 524.21 873.08 529.62 868.9 535.06 864.46 540.32 859.76 545.4 855.05 550.49 850.09 555.39 844.9 560.07 839.7 564.75 834.27 569.21 828.65 573.42 823.01 577.62 817.19 581.55 811.18 585.19 805.18 588.79 799 592.09 792.67 595.06 786.34 597.96 779.86 600.53 773.25 602.71 766.65 604.83 759.91 606.57 753.06 607.9 746.22 609.16 739.26 610.02 732.22 610.46 725.17 610.84 718.03 610.81 710.81 610.37 703.6 609.89 696.48 609.02 689.48 607.81 682.47 606.59 675.58 605.05 668.82 603.2 662.07 601.38 655.44 599.29 648.96 596.93 642.47 594.63 636.14 592.07 629.97 589.29 623.79 586.56 617.78 583.61 611.94 580.44 606.1 577.33 600.43 573.99 594.94 570.44 589.45 566.94 584.13 563.22 579.02 559.27 573.88 555.37 568.94 551.24 564.2 546.89 559.43 542.56 554.87 538 550.53 533.23 546.17 528.46 542.02 523.47 538.12 518.27 534.2 513.06 530.53 507.64 527.12 502.03 523.73 496.41 520.61 490.59 517.8 484.58 515.02 478.57 512.55 472.38 510.44 466.03 508.36 459.67 506.64 453.16 505.29 446.5 503.99 439.84 503.06 433.04 502.51 426.13 501.99 419.21 501.84 412.17 502.06 405.03 502.28 397.89 502.85 390.82 503.74 383.82 504.6 376.83 505.77 369.91 507.22 363.09 508.63 356.26 510.33 349.51 512.3 342.86 514.23 336.2 516.44 329.63 518.93 323.17 521.39 316.69 524.15 310.3 527.18 304.02 530.22 297.72 533.54 291.52 537.14 285.45 540.76 279.35 544.67 273.38 548.84 267.56 553.03 261.72 557.5 256.04 562.21 250.55 566.94 245.07 571.92 239.79 577.13 234.76 582.35 229.78 587.79 225.08 593.42 220.69 599.07 216.38 604.91 212.43 610.92 208.87 616.93 205.44 623.11 202.43 629.44 199.87 635.78 197.46 642.26 195.51 648.86 194.04 655.47 192.71 662.21 191.85 669.05 191.46 675.9 191.16 682.86 191.28 689.9 191.8 696.95 192.34 704.09 193.22 711.3 194.42" stroke-dasharray="12 34" transform="rotate(90, 711, 400)" opacity="0.12"></path><path d="M710.97 205.36C717.8 206.4 724.54 207.66 731.18 209.11 737.81 210.42 744.34 211.9 750.74 213.52 757.15 214.98 763.43 216.59 769.57 218.34 775.71 219.94 781.72 221.71 787.57 223.64 793.43 225.47 799.13 227.51 804.67 229.76 810.22 231.95 815.6 234.39 820.81 237.08 826.03 239.76 831.08 242.72 835.95 245.97 840.83 249.23 845.53 252.79 850.04 256.64 854.56 260.53 858.9 264.71 863.02 269.17 867.17 273.67 871.1 278.44 874.8 283.46 878.52 288.53 882 293.83 885.22 299.35 888.44 304.9 891.39 310.65 894.05 316.59 896.69 322.55 899.03 328.67 901.04 334.95 903.01 341.23 904.65 347.66 905.94 354.2 907.19 360.74 908.08 367.4 908.62 374.15 909.12 380.89 909.27 387.73 909.06 394.64 908.85 401.55 908.3 408.37 907.44 415.08 906.6 421.79 905.46 428.4 904.05 434.9 902.67 441.39 901.02 447.78 899.11 454.03 897.24 460.3 895.11 466.45 892.72 472.46 890.35 478.48 887.72 484.38 884.84 490.14 881.97 495.91 878.82 501.54 875.43 507.02 872.02 512.53 868.36 517.88 864.45 523.06 860.52 528.26 856.34 533.3 851.92 538.15 847.49 543.01 842.82 547.68 837.94 552.13 833.04 556.59 827.94 560.82 822.64 564.81 817.33 568.78 811.83 572.5 806.16 575.93 800.49 579.33 794.65 582.43 788.67 585.22 782.68 587.94 776.55 590.34 770.3 592.39 764.04 594.36 757.67 595.98 751.18 597.22 744.7 598.38 738.11 599.17 731.43 599.57 724.75 599.91 717.99 599.86 711.16 599.42 704.32 598.95 697.58 598.11 690.94 596.94 684.31 595.77 677.78 594.29 671.37 592.51 664.97 590.77 658.68 588.75 652.54 586.48 646.39 584.26 640.38 581.8 634.53 579.11 628.66 576.49 622.95 573.64 617.4 570.58 611.85 567.58 606.45 564.37 601.23 560.96 595.99 557.6 590.93 554.03 586.05 550.26 581.15 546.52 576.43 542.58 571.9 538.43 567.36 534.31 563.01 529.98 558.87 525.45 554.71 520.93 550.77 516.21 547.06 511.29 543.34 506.37 539.86 501.26 536.64 495.95 533.42 490.65 530.48 485.16 527.84 479.5 525.22 473.84 522.9 468 520.92 462.01 518.97 456.01 517.35 449.86 516.09 443.58 514.87 437.29 513.99 430.86 513.48 424.32 512.99 417.77 512.85 411.1 513.06 404.33 513.27 397.55 513.81 390.83 514.66 384.18 515.48 377.52 516.6 370.93 517.98 364.42 519.33 357.9 520.96 351.46 522.84 345.11 524.69 338.74 526.8 332.46 529.17 326.27 531.52 320.07 534.14 313.95 537.02 307.95 539.89 301.93 543.03 296.01 546.43 290.22 549.84 284.42 553.52 278.74 557.45 273.22 561.39 267.69 565.59 262.33 570.02 257.16 574.47 252.01 579.16 247.08 584.05 242.39 588.97 237.76 594.09 233.39 599.4 229.34 604.73 225.37 610.24 221.75 615.91 218.49 621.59 215.35 627.44 212.6 633.43 210.28 639.42 208.08 645.55 206.31 651.81 204.98 658.07 203.78 664.45 202.99 670.93 202.64 677.42 202.36 684.01 202.46 690.69 202.95 697.37 203.44 704.13 204.25 710.97 205.36" stroke-dasharray="56 64" transform="rotate(105, 711, 400)" opacity="0.78"></path><path d="M710.63 216.31C717.08 217.27 723.45 218.46 729.72 219.84 735.99 221.09 742.16 222.52 748.21 224.09 754.26 225.52 760.2 227.11 766.01 228.83 771.82 230.42 777.5 232.17 783.04 234.09 791.29 236.9 807.06 243.41 814.57 247.17 821.92 251.13 835.83 260.34 842.35 265.6 848.71 271.16 860.49 283.62 865.87 290.49 869.38 295.18 872.67 300.1 875.71 305.22 878.74 310.38 881.52 315.73 884.02 321.25 886.49 326.8 888.68 332.52 890.56 338.38 892.41 344.25 893.94 350.27 895.14 356.4 896.31 362.54 897.15 368.8 897.65 375.15 898.12 381.51 898.26 387.96 898.06 394.49 897.86 401.01 897.34 407.46 896.52 413.82 895.73 420.18 894.65 426.45 893.3 432.62 891.99 438.79 890.41 444.86 888.59 450.82 886.81 456.78 884.77 462.64 882.49 468.37 880.24 474.11 877.75 479.74 875.01 485.23 872.29 490.74 869.32 496.11 866.12 501.34 862.91 506.59 859.46 511.69 855.78 516.63 852.09 521.58 848.16 526.37 844.02 530.98 839.86 535.59 835.48 540.02 830.91 544.24 826.31 548.45 821.52 552.45 816.54 556.22 811.56 559.96 806.39 563.45 801.06 566.67 795.73 569.86 790.24 572.76 784.6 575.36 778.97 577.91 773.19 580.14 767.3 582.04 761.4 583.88 755.38 585.38 749.26 586.52 743.15 587.59 736.93 588.32 730.62 588.67 724.32 588.97 717.93 588.91 711.48 588.48 705.02 588.01 698.65 587.21 692.39 586.09 686.12 584.96 679.95 583.54 673.89 581.84 667.84 580.16 661.89 578.23 656.08 576.05 650.27 573.92 644.58 571.55 639.03 568.97 633.47 566.45 628.06 563.71 622.79 560.77 617.52 557.89 612.4 554.81 607.44 551.53 602.47 548.31 597.65 544.89 593.01 541.28 586.11 535.83 573.18 524.02 567.18 517.66 561.37 511.14 550.83 497.19 546.15 489.77 543.13 484.78 540.37 479.6 537.89 474.27 535.43 468.93 533.26 463.44 531.41 457.79 529.58 452.15 528.08 446.35 526.9 440.42 525.75 434.5 524.93 428.43 524.45 422.25 523.99 416.07 523.86 409.77 524.06 403.36 524.26 396.94 524.77 390.58 525.58 384.27 526.36 377.95 527.42 371.7 528.74 365.51 530.03 359.31 531.58 353.19 533.37 347.14 535.14 341.08 537.15 335.1 539.41 329.21 541.64 323.31 544.13 317.5 546.85 311.79 549.57 306.08 552.53 300.47 555.74 294.98 558.95 289.49 562.41 284.14 566.1 278.94 569.8 273.74 573.74 268.72 577.89 263.89 582.07 259.09 586.46 254.51 591.05 250.16 595.66 245.88 600.47 241.86 605.46 238.14 610.46 234.5 615.64 231.18 620.98 228.21 626.32 225.35 631.82 222.86 637.47 220.75 643.11 218.75 648.89 217.15 654.79 215.95 660.69 214.85 666.71 214.14 672.83 213.81 678.96 213.55 685.18 213.64 691.48 214.09 697.79 214.53 704.18 215.27 710.63 216.31" stroke-dasharray="12 19" transform="rotate(120, 711, 400)" opacity="0.15"></path><path d="M710.34 227.26C716.41 228.15 722.41 229.26 728.31 230.56 734.21 231.76 740.02 233.13 745.73 234.64 757.14 237.31 768.13 240.6 778.59 244.46 789.07 247.94 799.04 252.18 808.4 257.18 817.8 262.06 826.61 267.87 834.72 274.59 842.87 281.36 850.32 289.1 856.94 297.71 863.55 306.42 869.28 315.97 873.97 326.22 878.57 336.53 882.07 347.5 884.34 358.96 885.43 364.7 886.21 370.55 886.67 376.51 887.12 382.47 887.25 388.53 887.06 394.67 886.87 400.81 886.38 406.89 885.61 412.89 884.86 418.89 883.83 424.82 882.56 430.65 880.09 442.33 876.63 453.66 872.29 464.53 868.04 475.43 862.85 485.9 856.8 495.82 850.77 505.77 843.83 515.17 836.07 523.88 828.28 532.58 819.68 540.55 810.37 547.63 801.03 554.6 791.02 560.62 780.46 565.49 769.88 570.17 758.78 573.66 747.28 575.81 741.53 576.79 735.69 577.45 729.76 577.76 723.83 578.03 717.82 577.95 711.75 577.53 705.67 577.08 699.67 576.31 693.77 575.23 687.86 574.16 682.05 572.8 676.34 571.18 664.92 568 653.92 563.85 643.44 558.88 632.94 554.08 622.95 548.48 613.56 542.17 604.14 536.03 595.31 529.16 587.17 521.61 579 514.18 571.54 506.01 564.92 497.2 558.31 488.44 552.6 478.99 547.95 468.94 543.39 458.91 539.93 448.26 537.71 437.1 536.64 431.52 535.87 425.81 535.43 419.99 535 414.16 534.87 408.22 535.06 402.17 535.25 396.13 535.73 390.11 536.49 384.15 537.23 378.18 538.24 372.27 539.49 366.41 541.91 354.69 545.33 343.2 549.63 332.07 553.85 320.9 559.01 310.1 565.05 299.79 571.09 289.49 578.04 279.75 585.81 270.77 593.63 261.91 602.26 253.94 611.59 247.07 620.96 240.51 631 235.19 641.57 231.28 652.17 227.75 663.28 225.63 674.79 224.98 680.54 224.74 686.39 224.82 692.32 225.22 698.25 225.62 704.26 226.3 710.34 227.26" stroke-dasharray="61 40" transform="rotate(135, 711, 400)" opacity="0.56"></path><path d="M710.12 238.2C721.51 239.79 732.62 242.17 743.33 245.18 754.04 247.78 764.38 250.99 774.22 254.75 784.09 258.18 793.48 262.3 802.31 267.11 811.17 271.78 819.48 277.28 827.12 283.58 834.8 289.9 841.8 297.1 848 305.08 854.19 313.13 859.54 321.96 863.9 331.45 868.18 341 871.44 351.18 873.54 361.84 875.54 372.53 876.41 383.69 876.06 395.19 875.71 406.69 874.25 417.99 871.82 428.97 869.48 439.96 866.2 450.64 862.1 460.91 858.07 471.19 853.18 481.07 847.49 490.43 841.83 499.8 835.33 508.64 828.09 516.83 820.82 524.98 812.8 532.43 804.12 539.03 795.42 545.52 786.08 551.09 776.22 555.6 766.34 559.92 755.97 563.12 745.21 565.08 734.45 566.84 723.31 567.37 711.92 566.58 700.53 565.69 689.42 563.62 678.7 560.54 667.98 557.51 657.63 553.56 647.77 548.82 637.89 544.23 628.47 538.88 619.62 532.86 610.73 527.01 602.41 520.45 594.75 513.28 587.06 506.22 580.05 498.5 573.85 490.17 567.68 481.91 562.36 473.01 558.03 463.56 553.79 454.14 550.58 444.14 548.52 433.66 546.55 423.19 545.71 412.23 546.06 400.86 546.4 389.49 547.85 378.23 550.24 367.22 552.54 356.19 555.77 345.38 559.84 334.92 563.82 324.44 568.69 314.32 574.36 304.7 580.02 295.12 586.53 286.1 593.78 277.82 601.07 269.68 609.11 262.39 617.81 256.15 626.54 250.19 635.9 245.38 645.77 241.86 655.67 238.66 666.06 236.74 676.82 236.15 687.59 235.71 698.73 236.4 710.12 238.2" stroke-dasharray="42 40" transform="rotate(150, 711, 400)" opacity="0.60"></path><path d="M710.01 249.15C720.64 250.61 731.01 252.85 741.03 255.71 751.06 258.22 760.73 261.33 769.96 264.98 779.21 268.33 788.02 272.32 796.3 276.93 804.61 281.4 812.4 286.61 819.57 292.53 826.75 298.44 833.29 305.13 839.07 312.52 844.83 319.96 849.79 328.12 853.83 336.9 857.79 345.71 860.79 355.12 862.73 365.01 864.58 374.92 865.38 385.29 865.06 396 864.73 406.72 863.36 417.28 861.08 427.56 858.88 437.84 855.79 447.84 851.92 457.48 848.13 467.11 843.53 476.37 838.2 485.14 832.9 493.91 826.83 502.17 820.08 509.8 813.32 517.39 805.86 524.31 797.8 530.41 789.72 536.41 781.04 541.55 771.88 545.68 762.7 549.65 753.05 552.57 743.03 554.35 733.01 555.94 722.63 556.4 711.99 555.64 701.36 554.78 690.98 552.82 680.95 549.91 670.92 547.04 661.24 543.3 651.99 538.81 642.73 534.44 633.9 529.35 625.59 523.64 617.27 518.06 609.47 511.84 602.29 505.05 595.11 498.36 588.57 491.06 582.8 483.21 577.06 475.43 572.13 467.07 568.12 458.2 564.2 449.37 561.24 440 559.34 430.19 557.52 420.39 556.73 410.13 557.06 399.49 557.38 388.84 558.73 378.31 560.98 368 563.15 357.69 566.2 347.59 570.03 337.83 573.78 328.07 578.36 318.67 583.67 309.77 588.96 300.92 595.02 292.62 601.78 285.05 608.55 277.62 616.02 271 624.1 265.37 632.2 259.98 640.89 255.64 650.07 252.49 659.26 249.59 668.93 247.85 678.96 247.31 688.99 246.88 699.38 247.5 710.01 249.15" stroke-dasharray="26 39" transform="rotate(165, 711, 400)" opacity="0.98"></path><path d="M710.01 260.09C719.88 261.44 729.53 263.53 738.85 266.23 748.17 268.63 757.19 271.63 765.79 275.14 774.41 278.39 782.63 282.24 790.36 286.65 798.1 290.92 805.36 295.85 812.02 301.41 818.7 306.94 824.76 313.16 830.12 320.01 835.44 326.88 840.01 334.4 843.73 342.49 847.37 350.61 850.14 359.28 851.91 368.41 853.62 377.55 854.36 387.14 854.06 397.07 853.76 407 852.48 416.8 850.35 426.35 848.28 435.91 845.39 445.22 841.76 454.19 838.21 463.15 833.9 471.77 828.92 479.92 823.98 488.06 818.33 495.71 812.06 502.78 805.79 509.78 798.88 516.15 791.42 521.76 783.95 527.27 775.92 531.96 767.44 535.73 758.95 539.35 750.02 542 740.73 543.6 731.45 545.04 721.82 545.43 711.95 544.69 702.07 543.87 692.43 542.02 683.1 539.29 673.76 536.59 664.74 533.07 656.12 528.84 647.49 524.7 639.26 519.89 631.52 514.49 623.76 509.21 616.5 503.32 609.83 496.91 603.16 490.6 597.1 483.72 591.76 476.35 586.46 469.04 581.92 461.2 578.24 452.91 574.63 444.65 571.9 435.91 570.16 426.76 568.48 417.62 567.76 408.06 568.06 398.15 568.36 388.24 569.62 378.44 571.72 368.86 573.76 359.28 576.61 349.91 580.2 340.88 583.73 331.86 588 323.2 592.96 315.04 597.89 306.93 603.53 299.36 609.79 292.49 616.06 285.75 622.98 279.78 630.45 274.73 637.94 269.87 645.98 265.98 654.47 263.16 662.97 260.54 671.92 258.96 681.21 258.47 690.51 258.05 700.14 258.59 710.01 260.09" stroke-dasharray="51 57" transform="rotate(180, 711, 400)" opacity="0.94"></path><path d="M710.13 271.04C719.24 272.27 728.15 274.21 736.77 276.73 745.4 279.02 753.74 281.87 761.71 285.23 769.69 288.36 777.3 292.05 784.46 296.25 791.62 300.31 798.33 304.97 804.49 310.18 810.64 315.35 816.23 321.12 821.15 327.46 826.03 333.8 830.22 340.72 833.62 348.16 836.95 355.61 839.47 363.57 841.1 371.96 842.66 380.35 843.34 389.17 843.06 398.31 842.78 407.45 841.6 416.49 839.62 425.31 837.7 434.13 835 442.73 831.62 451.01 828.3 459.28 824.29 467.22 819.67 474.73 815.08 482.22 809.84 489.26 804.05 495.73 798.26 502.14 791.88 507.96 785.01 513.07 778.13 518.08 770.74 522.34 762.93 525.75 755.12 529.02 746.89 531.41 738.34 532.83 729.78 534.12 720.9 534.45 711.79 533.75 702.68 532.96 693.76 531.24 685.13 528.69 676.5 526.17 668.15 522.87 660.17 518.91 652.18 515.03 644.56 510.5 637.4 505.43 630.23 500.46 623.52 494.92 617.37 488.9 611.22 482.97 605.65 476.52 600.75 469.62 595.89 462.79 591.73 455.47 588.37 447.75 585.07 440.05 582.58 431.93 580.98 423.43 579.44 414.95 578.78 406.09 579.06 396.92 579.34 387.75 580.51 378.7 582.46 369.86 584.35 361.03 587.02 352.41 590.36 344.13 593.65 335.87 597.63 327.96 602.23 320.53 606.8 313.16 612.02 306.32 617.81 300.14 623.6 294.07 629.97 288.72 636.85 284.2 643.74 279.85 651.13 276.37 658.95 273.86 666.77 271.49 675.01 270.06 683.57 269.61 692.13 269.21 701.01 269.68 710.13 271.04" stroke-dasharray="71 4" transform="rotate(195, 711, 400)" opacity="0.16"></path><path d="M710.35 281.99C718.7 283.1 726.87 284.88 734.79 287.22 742.71 289.38 750.37 292.08 757.69 295.25 765.02 298.24 772.01 301.74 778.58 305.72 785.16 309.57 791.31 313.95 796.94 318.82 802.57 323.63 807.67 328.99 812.15 334.84 816.6 340.67 820.4 347.02 823.48 353.83 826.51 360.65 828.8 367.92 830.27 375.58 831.7 383.25 832.32 391.3 832.06 399.66 831.8 408.02 830.71 416.28 828.9 424.35 827.12 432.42 824.62 440.29 821.5 447.86 818.43 455.42 814.72 462.68 810.44 469.53 806.2 476.35 801.38 482.75 796.04 488.63 790.72 494.45 784.87 499.71 778.57 504.32 772.27 508.84 765.51 512.68 758.36 515.73 751.22 518.66 743.69 520.8 735.86 522.05 728.02 523.2 719.89 523.47 711.54 522.8 703.18 522.06 695.01 520.46 687.08 518.11 679.16 515.76 671.5 512.7 664.17 509.02 656.84 505.4 649.84 501.19 643.27 496.46 636.7 491.81 630.55 486.64 624.92 481.03 619.31 475.48 614.23 469.47 609.77 463.06 605.35 456.7 601.57 449.91 598.52 442.76 595.52 435.63 593.26 428.12 591.81 420.29 590.41 412.47 589.8 404.31 590.06 395.89 590.32 387.47 591.39 379.17 593.19 371.09 594.94 363.01 597.41 355.16 600.5 347.64 603.55 340.13 607.23 332.98 611.48 326.29 615.7 319.65 620.5 313.51 625.82 307.99 631.14 302.57 636.98 297.8 643.28 293.79 649.58 289.92 656.35 286.82 663.5 284.58 670.65 282.46 678.18 281.17 686.02 280.75 693.86 280.36 701.99 280.77 710.35 281.99" stroke-dasharray="64 41" transform="rotate(210, 711, 400)" opacity="0.76"></path><path d="M710.64 292.93C718.23 293.93 725.67 295.55 732.88 297.71 740.08 299.71 747.05 302.24 753.72 305.21 760.39 308.03 766.75 311.33 772.72 315.05 778.69 318.67 784.27 322.77 789.38 327.29 794.47 331.76 799.08 336.7 803.12 342.07 807.13 347.43 810.57 353.23 813.34 359.43 816.07 365.63 818.13 372.24 819.45 379.2 820.74 386.16 821.29 393.46 821.06 401.04 820.82 408.61 819.83 416.1 818.17 423.42 816.54 430.73 814.26 437.85 811.39 444.71 808.57 451.54 805.17 458.1 801.25 464.28 797.36 470.43 792.95 476.19 788.07 481.46 783.22 486.68 777.89 491.4 772.15 495.51 766.41 499.54 760.26 502.96 753.77 505.66 747.28 508.27 740.44 510.16 733.32 511.26 726.21 512.27 718.82 512.48 711.22 511.85 703.63 511.17 696.19 509.69 688.98 507.53 681.78 505.37 674.8 502.56 668.13 499.18 661.47 495.83 655.11 491.94 649.14 487.58 643.17 483.27 637.6 478.49 632.51 473.3 627.43 468.17 622.84 462.61 618.82 456.69 614.83 450.82 611.43 444.56 608.68 437.99 605.98 431.44 603.94 424.55 602.64 417.38 601.37 410.23 600.82 402.78 601.06 395.11 601.29 387.44 602.27 379.91 603.92 372.59 605.53 365.28 607.79 358.19 610.62 351.43 613.42 344.68 616.8 338.28 620.69 332.31 624.56 326.38 628.95 320.93 633.81 316.04 638.66 311.23 643.98 307.02 649.71 303.48 655.44 300.05 661.59 297.31 668.08 295.33 674.58 293.43 681.42 292.26 688.54 291.88 695.65 291.5 703.05 291.85 710.64 292.93" stroke-dasharray="41 38" transform="rotate(225, 711, 400)" opacity="0.81"></path><path d="M710.98 303.88C717.81 304.76 724.5 306.23 730.99 308.19 737.47 310.03 743.75 312.36 749.75 315.11 755.75 317.74 761.47 320.81 766.83 324.26 772.19 327.63 777.2 331.42 781.77 335.59 786.33 339.71 790.45 344.24 794.06 349.14 797.64 354.01 800.7 359.28 803.17 364.89 805.6 370.5 807.44 376.46 808.62 382.72 809.77 388.98 810.27 395.54 810.06 402.34 809.85 409.14 808.95 415.86 807.45 422.41 805.98 428.96 803.9 435.33 801.31 441.46 798.74 447.57 795.65 453.42 792.09 458.93 788.56 464.4 784.56 469.52 780.14 474.2 775.75 478.82 770.93 482.99 765.74 486.62 760.57 490.18 755.03 493.18 749.18 495.56 743.33 497.85 737.17 499.5 730.77 500.45 724.37 501.32 717.71 501.49 710.88 500.91 704.05 500.27 697.35 498.93 690.87 496.97 684.38 495.01 678.1 492.45 672.11 489.37 666.11 486.32 660.4 482.77 655.04 478.78 649.69 474.84 644.7 470.46 640.14 465.71 635.59 461.01 631.49 455.93 627.91 450.53 624.35 445.15 621.31 439.45 618.87 433.47 616.45 427.5 614.64 421.25 613.48 414.76 612.34 408.27 611.85 401.55 612.06 394.64 612.27 387.73 613.16 380.96 614.64 374.41 616.1 367.87 618.15 361.55 620.73 355.53 623.27 349.54 626.34 343.86 629.88 338.59 633.38 333.37 637.37 328.57 641.77 324.28 646.15 320.05 650.96 316.36 656.13 313.26 661.3 310.24 666.83 307.83 672.68 306.09 678.53 304.39 684.68 303.35 691.09 302.99 697.49 302.64 704.14 302.92 710.98 303.88" stroke-dasharray="62 61" transform="rotate(240, 711, 400)" opacity="0.12"></path><path d="M711.31 314.82C723.46 316.31 735.11 319.86 745.76 324.95 756.41 329.69 766.03 336.05 774.12 343.7 782.16 351.16 788.62 360.09 792.99 370.15 797.26 380.18 799.43 391.43 799.06 403.5 798.69 415.56 795.91 427.27 791.24 438.08 786.65 448.84 780.18 458.6 772.27 466.81 764.41 474.86 755.05 481.24 744.62 485.4 734.21 489.33 722.7 490.99 710.55 489.96 698.4 488.78 686.76 485.13 676.11 479.6 665.48 474.14 655.88 466.86 647.81 458.28 639.81 449.81 633.39 439.97 629.07 429.22 624.83 418.5 622.69 406.78 623.06 394.5 623.43 382.21 626.18 370.52 630.82 359.95 635.36 349.44 641.79 340.17 649.67 332.68 657.5 325.37 666.84 319.95 677.25 316.85 687.66 313.89 699.16 313.12 711.31 314.82" stroke-dasharray="1 11" transform="rotate(255, 711, 400)" opacity="0.26"></path><path d="M711.62 325.77C722.25 327.06 732.42 330.21 741.72 334.75 751.01 339.03 759.39 344.77 766.42 351.62 773.41 358.32 779.01 366.27 782.79 375.16 786.5 384.03 788.38 393.9 788.06 404.44 787.73 414.97 785.29 425.15 781.18 434.51 777.13 443.83 771.42 452.25 764.44 459.29 757.51 466.21 749.28 471.67 740.13 475.2 730.99 478.55 720.91 479.95 710.28 479.02 699.64 477.96 689.47 474.74 680.18 469.87 670.91 465.03 662.55 458.58 655.55 450.98 648.59 443.45 643.03 434.73 639.28 425.23 635.6 415.75 633.73 405.44 634.06 394.7 634.38 383.95 636.81 373.79 640.89 364.67 644.9 355.59 650.58 347.62 657.53 341.22 664.43 334.94 672.64 330.28 681.78 327.61 690.91 325.02 700.98 324.32 711.62 325.77" stroke-dasharray="49 10" transform="rotate(270, 711, 400)" opacity="0.35"></path><path d="M711.84 336.72C720.96 337.81 729.67 340.54 737.61 344.5 745.54 348.28 752.68 353.33 758.66 359.34 764.61 365.23 769.37 372.18 772.57 379.89 775.73 387.57 777.34 396.08 777.06 405.1 776.78 414.12 774.68 422.79 771.14 430.72 767.64 438.61 762.7 445.72 756.68 451.63 750.69 457.45 743.59 462.02 735.72 464.95 727.86 467.76 719.2 468.91 710.08 468.07 700.97 467.14 692.26 464.37 684.34 460.17 676.42 455.98 669.29 450.4 663.34 443.82 657.42 437.27 652.69 429.72 649.51 421.5 646.37 413.31 644.78 404.43 645.06 395.23 645.34 386.02 647.42 377.38 650.94 369.66 654.42 361.97 659.32 355.25 665.32 349.87 671.28 344.57 678.36 340.63 686.22 338.36 694.07 336.13 702.73 335.5 711.84 336.72" stroke-dasharray="56 24" transform="rotate(285, 711, 400)" opacity="0.69"></path><path d="M711.97 347.66C719.56 348.57 726.81 350.86 733.4 354.21 739.98 357.45 745.9 361.76 750.84 366.88 755.76 371.92 759.7 377.82 762.34 384.32 764.96 390.81 766.29 397.94 766.06 405.45 765.82 412.96 764.07 420.13 761.11 426.66 758.17 433.16 754.02 438.99 748.97 443.81 743.94 448.57 737.99 452.28 731.4 454.65 724.82 456.93 717.59 457.85 710 457.12 702.4 456.34 695.17 454.01 688.59 450.5 682.01 446.98 676.11 442.29 671.19 436.76 666.29 431.25 662.38 424.9 659.75 418.01 657.15 411.13 655.82 403.71 656.06 396.05 656.29 388.4 658.04 381.25 660.99 374.88 663.91 368.54 668.03 363.03 673.06 358.61 678.07 354.24 684 350.99 690.58 349.1 697.15 347.23 704.38 346.68 711.97 347.66" stroke-dasharray="31 20" transform="rotate(300, 711, 400)" opacity="0.36"></path><path d="M711.99 358.61C724.14 359.98 735.11 365.84 742.97 374.24 750.78 382.45 755.43 393.44 755.06 405.46 754.69 417.47 749.46 428.24 741.32 435.83 733.23 443.26 722.18 447.32 710.03 446.18 697.87 444.87 686.93 438.69 679.09 429.8 671.31 420.93 666.69 409.35 667.06 397.13 667.43 384.9 672.63 374.4 680.74 367.4 688.8 360.47 699.83 357.04 711.99 358.61" stroke-dasharray="61 60" transform="rotate(315, 711, 400)" opacity="0.08"></path><path d="M711.89 369.55C721 370.59 729.19 375.05 735.04 381.45 740.87 387.75 744.34 396.1 744.06 405.12 743.78 414.14 739.84 422.12 733.71 427.68 727.6 433.17 719.28 436.13 710.17 435.23 701.06 434.23 692.88 429.59 687.04 422.91 681.23 416.22 677.78 407.52 678.06 398.38 678.34 389.23 682.26 381.42 688.37 376.2 694.46 371.02 702.77 368.41 711.89 369.55" stroke-dasharray="67 10" transform="rotate(330, 711, 400)" opacity="0.69"></path><path d="M711.68 380.5C723.83 381.82 733.43 392.42 733.06 404.47 732.69 416.51 722.56 425.49 710.41 424.28 698.25 422.91 688.69 411.88 689.06 399.73 689.43 387.56 699.52 378.99 711.68 380.5" stroke-dasharray="68 65" transform="rotate(345, 711, 400)" opacity="0.55"></path></g></svg>